<?xml version="1.0" encoding="UTF-8" standalone="no"?>
<!-- Created with Inkscape (http://www.inkscape.org/) -->

<svg
   xmlns:dc="http://purl.org/dc/elements/1.1/"
   xmlns:cc="http://creativecommons.org/ns#"
   xmlns:rdf="http://www.w3.org/1999/02/22-rdf-syntax-ns#"
   xmlns:svg="http://www.w3.org/2000/svg"
   xmlns="http://www.w3.org/2000/svg"
   xmlns:sodipodi="http://sodipodi.sourceforge.net/DTD/sodipodi-0.dtd"
   xmlns:inkscape="http://www.inkscape.org/namespaces/inkscape"
   width="58.65625"
   height="58.6875"
   id="svg2"
   version="1.1"
   inkscape:version="0.92.4 (unknown)"
   sodipodi:docname="OpenTodoList.svg"
   inkscape:export-filename="/home/martin/opentodolist_1024x1024.png"
   inkscape:export-xdpi="1675.3"
   inkscape:export-ydpi="1675.3">
  <defs
     id="defs4" />
  <sodipodi:namedview
     id="base"
     pagecolor="#ffffff"
     bordercolor="#666666"
     borderopacity="1.0"
     inkscape:pageopacity="0.0"
     inkscape:pageshadow="2"
     inkscape:zoom="7.919596"
     inkscape:cx="-12.111827"
     inkscape:cy="19.310692"
     inkscape:document-units="px"
     inkscape:current-layer="text2985"
     showgrid="false"
     fit-margin-top="0"
     fit-margin-left="0"
     fit-margin-right="0"
     fit-margin-bottom="0"
     inkscape:window-width="3200"
     inkscape:window-height="1689"
     inkscape:window-x="0"
     inkscape:window-y="50"
     inkscape:window-maximized="1" />
  <metadata
     id="metadata7">
    <rdf:RDF>
      <cc:Work
         rdf:about="">
        <dc:format>image/svg+xml</dc:format>
        <dc:type
           rdf:resource="http://purl.org/dc/dcmitype/StillImage" />
        <dc:title />
      </cc:Work>
    </rdf:RDF>
  </metadata>
  <g
     inkscape:label="Layer 1"
     inkscape:groupmode="layer"
     id="layer1"
     transform="translate(-149.5,-383.75)">
    <rect
       style="fill:#ffffff;fill-opacity:1;stroke:#000000;stroke-linejoin:round;stroke-opacity:1"
       id="rect3788"
       width="57.67857"
       height="57.67857"
       x="149.99107"
       y="384.25446"
       rx="6.0999999" />
    <g
       id="g3351"
       transform="translate(-0.46933847,10e-6)">
      <g
         aria-label="✔"
         style="font-style:normal;font-variant:normal;font-weight:normal;font-stretch:normal;font-size:14.97358322px;line-height:0%;font-family:FontAwesome;-inkscape-font-specification:FontAwesome;letter-spacing:0px;word-spacing:0px;fill:#000000;fill-opacity:1;stroke:none;stroke-width:1.24779868"
         id="text2985">
        <path
           d="m 171.03604,410.96188 q 1.31987,0 1.99672,2.16594 1.35371,4.06112 1.92904,4.06112 0.43995,0 0.91375,-0.67686 9.50979,-13.97702 17.5982,-19.89949 3.41811,-2.50436 6.667,-2.50436 4.29803,0 5.17794,0.27074 0.37227,0.10153 0.37227,0.84606 0,0.60917 -0.77839,1.52293 -21.76084,24.9759 -25.92349,32.48897 -1.4214,2.57205 -6.56549,2.57205 -1.69213,0 -3.55348,-0.87991 -0.77838,-0.40611 -2.70741,-5.17793 -2.43668,-6.024 -2.43668,-10.55892 0,-1.65829 2.36899,-2.74126 3.2489,-1.48908 4.87335,-1.48908 z"
           style="font-style:normal;font-variant:normal;font-weight:normal;font-stretch:normal;font-size:69.30982208px;line-height:1.25;font-family:sans-serif;-inkscape-font-specification:sans-serif;stroke-width:1.24779868"
           id="path12" />
      </g>
      <path
         inkscape:connector-curvature="0"
         id="path2989"
         d="m 177.16485,388.21874 c -13.73809,0 -24.875,11.13691 -24.875,24.875 0,13.73809 11.13691,24.875 24.875,24.875 8.15698,0 15.40124,-3.93431 19.9375,-10 -3.85692,3.98809 -9.26378,6.46875 -15.25,6.46875 -11.71573,0 -21.21875,-9.50302 -21.21875,-21.21875 0,-11.71573 9.50302,-21.21875 21.21875,-21.21875 6.46932,0 12.23405,2.90252 16.125,7.46875 -4.44412,-6.77482 -12.10488,-11.25 -20.8125,-11.25 z"
         style="fill:#2b7c00;fill-opacity:1;stroke:none" />
    </g>
  </g>
</svg>
