<?xml version="1.0" encoding="UTF-8" standalone="no"?>
<svg
   xmlns:dc="http://purl.org/dc/elements/1.1/"
   xmlns:cc="http://creativecommons.org/ns#"
   xmlns:rdf="http://www.w3.org/1999/02/22-rdf-syntax-ns#"
   xmlns:svg="http://www.w3.org/2000/svg"
   xmlns="http://www.w3.org/2000/svg"
   xmlns:xlink="http://www.w3.org/1999/xlink"
   xmlns:sodipodi="http://sodipodi.sourceforge.net/DTD/sodipodi-0.dtd"
   xmlns:inkscape="http://www.inkscape.org/namespaces/inkscape"
   width="512"
   height="512"
   viewBox="0 0 135.46666 135.46666"
   version="1.1"
   id="svg8"
   inkscape:version="1.0beta2 (unknown)"
   sodipodi:docname="OpenTodoList-Transparent.svg"
   inkscape:export-filename="/home/martin/OpenTodoList-Icon-2020.png"
   inkscape:export-xdpi="96"
   inkscape:export-ydpi="96">
  <defs
     id="defs2">
    <linearGradient
       inkscape:collect="always"
       id="linearGradient1030">
      <stop
         style="stop-color:#000000;stop-opacity:0.1"
         offset="0"
         id="stop1026" />
      <stop
         style="stop-color:#000000;stop-opacity:0;"
         offset="1"
         id="stop1028" />
    </linearGradient>
    <filter
       inkscape:collect="always"
       style="color-interpolation-filters:sRGB"
       id="filter952"
       x="-0.024"
       width="1.048"
       y="-0.024"
       height="1.048">
      <feGaussianBlur
         inkscape:collect="always"
         stdDeviation="1.0549535"
         id="feGaussianBlur954" />
    </filter>
    <filter
       inkscape:collect="always"
       style="color-interpolation-filters:sRGB"
       id="filter964"
       x="-0.011390318"
       width="1.0227806"
       y="-0.012678641"
       height="1.0253573">
      <feGaussianBlur
         inkscape:collect="always"
         stdDeviation="0.45339065"
         id="feGaussianBlur966" />
    </filter>
    <linearGradient
       inkscape:collect="always"
       xlink:href="#linearGradient1030"
       id="linearGradient1032"
       x1="334.12891"
       y1="248.31445"
       x2="382.31445"
       y2="296.5"
       gradientUnits="userSpaceOnUse" />
  </defs>
  <sodipodi:namedview
     id="base"
     pagecolor="#ffffff"
     bordercolor="#666666"
     borderopacity="1.0"
     inkscape:pageopacity="0"
     inkscape:pageshadow="2"
     inkscape:zoom="0.5"
     inkscape:cx="-13.38518"
     inkscape:cy="219.19705"
     inkscape:document-units="mm"
     inkscape:current-layer="layer1"
     inkscape:document-rotation="0"
     showgrid="false"
     units="px"
     inkscape:window-width="1600"
     inkscape:window-height="875"
     inkscape:window-x="1797"
     inkscape:window-y="166"
     inkscape:window-maximized="0"
     showborder="false"
     inkscape:pagecheckerboard="false" />
  <metadata
     id="metadata5">
    <rdf:RDF>
      <cc:Work
         rdf:about="">
        <dc:format>image/svg+xml</dc:format>
        <dc:type
           rdf:resource="http://purl.org/dc/dcmitype/StillImage" />
        <dc:title></dc:title>
      </cc:Work>
    </rdf:RDF>
  </metadata>
  <g
     inkscape:groupmode="layer"
     id="layer3"
     inkscape:label="Background"
     style="display:none"
     sodipodi:insensitive="true">
    <rect
       style="opacity:1;fill:#ffffff;fill-opacity:1;stroke:none;stroke-width:0.499999;stroke-miterlimit:4;stroke-dasharray:none;stroke-opacity:1"
       id="rect983"
       width="135.46666"
       height="135.46666"
       x="3.5603841e-06"
       y="3.5603841e-06" />
  </g>
  <g
     inkscape:label="Main Icon"
     inkscape:groupmode="layer"
     id="layer1">
    <circle
       r="52.747677"
       cy="67.733337"
       cx="63.247662"
       id="circle950"
       style="opacity:0.98;fill:#000000;fill-opacity:1;stroke:none;stroke-width:0.604124;stroke-miterlimit:4;stroke-dasharray:none;stroke-opacity:1;filter:url(#filter952)"
       transform="matrix(0.88619976,0,0,0.88619976,11.683272,7.708067)" />
    <g
       id="g1036">
      <circle
         r="46.74498"
         cy="67.733337"
         cx="67.733337"
         id="path928"
         style="fill:#2b7c00;fill-opacity:1;stroke:none;stroke-width:0.535375;stroke-miterlimit:4;stroke-dasharray:none;stroke-opacity:1" />
      <ellipse
         ry="41.86478"
         rx="35.598843"
         style="fill:#e6e6e6;fill-opacity:1;stroke:none;stroke-width:0.442145;stroke-miterlimit:4;stroke-dasharray:none;stroke-opacity:1"
         id="circle930"
         cx="75.721718"
         cy="67.733337" />
    </g>
    <path
       id="rect1019"
       style="opacity:1;fill:url(#linearGradient1032);fill-opacity:1;stroke:none;stroke-width:2.02469;stroke-miterlimit:4;stroke-dasharray:none;stroke-opacity:1"
       d="M 451.39258 119.62891 L 213.12891 357.89258 L 367.23633 512 L 512 512 L 512 180.23633 L 451.39258 119.62891 z "
       transform="scale(0.26458333)" />
    <g
       id="g987"
       transform="matrix(0.76341676,0,0,0.76341676,-106.29844,16.910899)">
      <path
         id="path962"
         style="font-style:normal;font-variant:normal;font-weight:normal;font-stretch:normal;font-size:69.3098px;line-height:1.25;font-family:sans-serif;-inkscape-font-specification:sans-serif;letter-spacing:0px;word-spacing:0px;opacity:0.8;fill:#000000;fill-opacity:1;stroke:none;stroke-width:2.84058;filter:url(#filter964)"
         d="m 217.5259,56.707428 q 3.00463,0 4.54547,4.930694 3.08167,9.245001 4.39139,9.245001 1.00153,0 2.08013,-1.540855 21.64871,-31.81821 40.06171,-45.300516 7.78118,-5.701095 15.17719,-5.701095 9.78432,0 11.78741,0.616304 0.84748,0.231109 0.84748,1.926039 0,1.386747 -1.77197,3.466883 -49.53782,56.856803 -59.01396,73.960047 -3.23577,5.85519 -14.94612,5.85519 -3.85208,0 -8.08937,-2.00308 -1.77199,-0.9245 -6.16336,-11.787386 -5.54701,-13.713425 -5.54701,-24.037031 0,-3.775035 5.39292,-6.240377 7.39601,-3.38984 11.09401,-3.38984 z"
         inkscape:connector-curvature="0" />
      <path
         inkscape:connector-curvature="0"
         d="m 217.5259,56.707428 q 3.00463,0 4.54547,4.930694 3.08166,9.245001 4.39139,9.245001 1.00153,0 2.08012,-1.540855 21.64871,-31.81821 40.06171,-45.300516 7.78119,-5.701095 15.1772,-5.701095 9.78432,0 11.78741,0.616304 0.84748,0.231109 0.84748,1.926039 0,1.386747 -1.77197,3.466883 -49.53782,56.856803 -59.01396,73.960047 -3.23577,5.85519 -14.94612,5.85519 -3.85208,0 -8.08937,-2.00308 -1.77199,-0.9245 -6.16337,-11.787386 -5.54701,-13.713425 -5.54701,-24.037031 0,-3.775035 5.39293,-6.240377 7.39601,-3.38984 11.09401,-3.38984 z"
         style="font-style:normal;font-variant:normal;font-weight:normal;font-stretch:normal;font-size:69.3098px;line-height:1.25;font-family:sans-serif;-inkscape-font-specification:sans-serif;letter-spacing:0px;word-spacing:0px;fill:#1a1a1a;fill-opacity:1;stroke:none;stroke-width:2.84058"
         id="path932" />
    </g>
  </g>
  <g
     inkscape:groupmode="layer"
     id="layer2"
     inkscape:label="Border (Applied by App Stores)"
     style="display:none"
     sodipodi:insensitive="true">
    <path
       id="rect36"
       style="fill:#000000;fill-opacity:1;stroke:none;stroke-width:1.88976;stroke-miterlimit:4;stroke-dasharray:none;stroke-opacity:1"
       d="M 0,0 V 100 C 0,44.599999 44.599999,0 100,0 Z m 412,0 c 55.40001,0 100,44.599999 100,100 V 0 Z M 0,412 V 512 H 100 C 44.599999,512 0,467.40001 0,412 Z m 512,0 c 0,55.40001 -44.59999,100 -100,100 h 100 z"
       transform="scale(0.26458333)"
       inkscape:connector-curvature="0" />
  </g>
</svg>
